<svg xmlns="http://www.w3.org/2000/svg" xmlns:xlink="http://www.w3.org/1999/xlink" width="500" zoomAndPan="magnify" viewBox="0 0 375 374.999991" height="500" preserveAspectRatio="xMidYMid meet" version="1.2"><defs><clipPath id="abd79cbd62"><path d="M 2.023438 33 L 342 33 L 342 373 L 2.023438 373 Z M 2.023438 33 "/></clipPath></defs><g id="3a3e04d823"><g clip-rule="nonzero" clip-path="url(#abd79cbd62)"><path style=" stroke:none;fill-rule:nonzero;fill:#ffffff;fill-opacity:1;" d="M 313.503906 344.652344 L 30.339844 344.652344 L 30.339844 61.488281 L 200.238281 61.488281 L 200.238281 33.171875 L 30.339844 33.171875 C 14.710938 33.171875 2.023438 45.859375 2.023438 61.488281 L 2.023438 344.652344 C 2.023438 360.285156 14.710938 372.96875 30.339844 372.96875 L 313.503906 372.96875 C 329.136719 372.96875 341.820312 360.285156 341.820312 344.652344 L 341.820312 174.753906 L 313.503906 174.753906 Z M 313.503906 344.652344 "/></g><path style=" stroke:none;fill-rule:nonzero;fill:#ffffff;fill-opacity:1;" d="M 115.289062 260.15625 L 174.894531 260.15625 L 319.367188 115.6875 L 259.308594 55.628906 L 115.289062 199.644531 Z M 115.289062 260.15625 "/><path style=" stroke:none;fill-rule:nonzero;fill:#ffffff;fill-opacity:1;" d="M 361.839844 33.171875 L 341.820312 13.152344 C 330.75 2.082031 312.824219 2.082031 301.78125 13.152344 L 279.328125 35.605469 L 339.386719 95.667969 L 361.839844 73.210938 C 372.914062 62.140625 372.914062 44.214844 361.839844 33.171875 Z M 361.839844 33.171875 "/></g></svg>