<svg xmlns="http://www.w3.org/2000/svg" xmlns:xlink="http://www.w3.org/1999/xlink" width="500" zoomAndPan="magnify" viewBox="0 0 375 374.999991" height="500" preserveAspectRatio="xMidYMid meet" version="1.2"><defs><clipPath id="584bc60aa2"><path d="M 3.992188 3.992188 L 372.242188 3.992188 L 372.242188 372.242188 L 3.992188 372.242188 Z M 3.992188 3.992188 "/></clipPath></defs><g id="0d2e0468b4"><g clip-rule="nonzero" clip-path="url(#584bc60aa2)"><path style=" stroke:none;fill-rule:nonzero;fill:#ffffff;fill-opacity:1;" d="M 341.445312 3.992188 L 34.667969 3.992188 C 17.734375 3.992188 3.992188 17.734375 3.992188 34.667969 L 3.992188 341.445312 C 3.992188 358.382812 17.734375 372.125 34.667969 372.125 L 341.445312 372.125 C 358.382812 372.125 372.125 358.382812 372.125 341.445312 L 372.125 34.667969 C 372.125 17.734375 358.382812 3.992188 341.445312 3.992188 Z M 157.378906 277.453125 L 58.996094 179.070312 L 102.375 135.691406 L 157.378906 190.695312 L 273.742188 74.335938 L 317.121094 117.714844 Z M 157.378906 277.453125 "/></g></g></svg>