<svg xmlns="http://www.w3.org/2000/svg" xmlns:xlink="http://www.w3.org/1999/xlink" width="40" zoomAndPan="magnify" viewBox="0 0 30 30.000001" height="40" preserveAspectRatio="xMidYMid meet" version="1.2"><defs><clipPath id="e7777aeb02"><path d="M 4.308594 1.152344 L 24.628906 1.152344 L 24.628906 26.554688 L 4.308594 26.554688 Z M 4.308594 1.152344 "/></clipPath><clipPath id="5a7da3b8e9"><path d="M 14.582031 13.992188 L 25 13.992188 L 25 24 L 14.582031 24 Z M 14.582031 13.992188 "/></clipPath><clipPath id="5b7194751c"><path d="M 24 23 L 29 23 L 29 28.511719 L 24 28.511719 Z M 24 23 "/></clipPath></defs><g id="16872989f5"><g clip-rule="nonzero" clip-path="url(#e7777aeb02)"><path style=" stroke:none;fill-rule:nonzero;fill:#f5333e;fill-opacity:1;" d="M 5.15625 2.84375 C 5.15625 2.378906 5.535156 2 6 2 L 20.816406 2 L 20.816406 3.269531 C 20.816406 4.203125 21.578125 4.960938 22.511719 4.960938 L 23.78125 4.960938 L 23.78125 24.859375 C 23.78125 25.324219 23.402344 25.707031 22.933594 25.707031 L 6 25.707031 C 5.535156 25.707031 5.15625 25.324219 5.15625 24.859375 Z M 23.183594 4.117188 L 22.511719 4.117188 C 22.046875 4.117188 21.664062 3.734375 21.664062 3.269531 L 21.664062 2.597656 Z M 6 26.550781 L 22.933594 26.550781 C 23.867188 26.550781 24.628906 25.792969 24.628906 24.859375 L 24.628906 4.890625 C 24.628906 4.710938 24.589844 4.539062 24.519531 4.382812 C 24.515625 4.371094 24.511719 4.363281 24.507812 4.355469 C 24.445312 4.222656 24.363281 4.097656 24.257812 3.992188 L 21.789062 1.523438 C 21.679688 1.417969 21.554688 1.332031 21.421875 1.269531 C 21.414062 1.269531 21.410156 1.261719 21.398438 1.261719 C 21.242188 1.191406 21.070312 1.152344 20.890625 1.152344 L 6 1.152344 C 5.066406 1.152344 4.308594 1.910156 4.308594 2.84375 L 4.308594 24.859375 C 4.308594 25.792969 5.066406 26.550781 6 26.550781 "/></g><path style=" stroke:none;fill-rule:nonzero;fill:#f5333e;fill-opacity:1;" d="M 7.695312 7.078125 C 7.695312 6.84375 7.882812 6.65625 8.117188 6.65625 L 10.65625 6.65625 C 10.839844 6.65625 10.992188 6.769531 11.050781 6.933594 L 9.8125 8.171875 L 9.265625 7.625 C 9.097656 7.460938 8.832031 7.460938 8.664062 7.625 C 8.5 7.792969 8.5 8.058594 8.664062 8.226562 L 9.511719 9.070312 C 9.59375 9.152344 9.703125 9.195312 9.8125 9.195312 C 9.921875 9.195312 10.027344 9.152344 10.109375 9.070312 L 11.082031 8.101562 L 11.082031 9.617188 C 11.082031 9.851562 10.890625 10.042969 10.65625 10.042969 L 8.117188 10.042969 C 7.882812 10.042969 7.695312 9.851562 7.695312 9.617188 Z M 8.117188 10.890625 L 10.65625 10.890625 C 11.359375 10.890625 11.929688 10.320312 11.929688 9.617188 L 11.929688 7.253906 L 13.074219 6.109375 C 13.238281 5.941406 13.238281 5.675781 13.074219 5.507812 C 12.910156 5.34375 12.640625 5.34375 12.476562 5.507812 L 11.667969 6.316406 C 11.433594 6.011719 11.070312 5.808594 10.65625 5.808594 L 8.117188 5.808594 C 7.417969 5.808594 6.847656 6.378906 6.847656 7.078125 L 6.847656 9.617188 C 6.847656 10.320312 7.417969 10.890625 8.117188 10.890625 "/><path style=" stroke:none;fill-rule:nonzero;fill:#f5333e;fill-opacity:1;" d="M 7.695312 13.003906 C 7.695312 12.773438 7.882812 12.582031 8.117188 12.582031 L 10.65625 12.582031 C 10.890625 12.582031 11.082031 12.773438 11.082031 13.003906 L 11.082031 15.546875 C 11.082031 15.777344 10.890625 15.96875 10.65625 15.96875 L 8.117188 15.96875 C 7.882812 15.96875 7.695312 15.777344 7.695312 15.546875 Z M 8.117188 16.816406 L 10.65625 16.816406 C 11.359375 16.816406 11.929688 16.246094 11.929688 15.546875 L 11.929688 13.003906 C 11.929688 12.304688 11.359375 11.734375 10.65625 11.734375 L 8.117188 11.734375 C 7.417969 11.734375 6.847656 12.304688 6.847656 13.003906 L 6.847656 15.546875 C 6.847656 16.246094 7.417969 16.816406 8.117188 16.816406 "/><path style=" stroke:none;fill-rule:nonzero;fill:#f5333e;fill-opacity:1;" d="M 7.695312 18.933594 C 7.695312 18.699219 7.882812 18.507812 8.117188 18.507812 L 10.65625 18.507812 C 10.890625 18.507812 11.082031 18.699219 11.082031 18.933594 L 11.082031 21.472656 C 11.082031 21.707031 10.890625 21.894531 10.65625 21.894531 L 8.117188 21.894531 C 7.882812 21.894531 7.695312 21.707031 7.695312 21.472656 Z M 8.117188 22.742188 L 10.65625 22.742188 C 11.359375 22.742188 11.929688 22.171875 11.929688 21.472656 L 11.929688 18.933594 C 11.929688 18.230469 11.359375 17.664062 10.65625 17.664062 L 8.117188 17.664062 C 7.417969 17.664062 6.847656 18.230469 6.847656 18.933594 L 6.847656 21.472656 C 6.847656 22.171875 7.417969 22.742188 8.117188 22.742188 "/><path style=" stroke:none;fill-rule:nonzero;fill:#f5333e;fill-opacity:1;" d="M 14.46875 7.503906 L 21.664062 7.503906 C 21.898438 7.503906 22.089844 7.3125 22.089844 7.078125 C 22.089844 6.84375 21.898438 6.65625 21.664062 6.65625 L 14.46875 6.65625 C 14.234375 6.65625 14.042969 6.84375 14.042969 7.078125 C 14.042969 7.3125 14.234375 7.503906 14.46875 7.503906 "/><path style=" stroke:none;fill-rule:nonzero;fill:#f5333e;fill-opacity:1;" d="M 14.46875 9.617188 L 18.703125 9.617188 C 18.933594 9.617188 19.125 9.429688 19.125 9.195312 C 19.125 8.960938 18.933594 8.773438 18.703125 8.773438 L 14.46875 8.773438 C 14.234375 8.773438 14.042969 8.960938 14.042969 9.195312 C 14.042969 9.429688 14.234375 9.617188 14.46875 9.617188 "/><path style=" stroke:none;fill-rule:nonzero;fill:#f5333e;fill-opacity:1;" d="M 14.46875 13.429688 L 21.664062 13.429688 C 21.898438 13.429688 22.089844 13.238281 22.089844 13.003906 C 22.089844 12.773438 21.898438 12.582031 21.664062 12.582031 L 14.46875 12.582031 C 14.234375 12.582031 14.042969 12.773438 14.042969 13.003906 C 14.042969 13.238281 14.234375 13.429688 14.46875 13.429688 "/><path style=" stroke:none;fill-rule:nonzero;fill:#f5333e;fill-opacity:1;" d="M 14.46875 15.546875 L 18.703125 15.546875 C 18.933594 15.546875 19.125 15.355469 19.125 15.121094 C 19.125 14.890625 18.933594 14.699219 18.703125 14.699219 L 14.46875 14.699219 C 14.234375 14.699219 14.042969 14.890625 14.042969 15.121094 C 14.042969 15.355469 14.234375 15.546875 14.46875 15.546875 "/><path style=" stroke:none;fill-rule:nonzero;fill:#f5333e;fill-opacity:1;" d="M 14.46875 19.355469 L 21.664062 19.355469 C 21.898438 19.355469 22.089844 19.164062 22.089844 18.933594 C 22.089844 18.699219 21.898438 18.507812 21.664062 18.507812 L 14.46875 18.507812 C 14.234375 18.507812 14.042969 18.699219 14.042969 18.933594 C 14.042969 19.164062 14.234375 19.355469 14.46875 19.355469 "/><path style=" stroke:none;fill-rule:nonzero;fill:#f5333e;fill-opacity:1;" d="M 14.46875 21.472656 L 18.703125 21.472656 C 18.933594 21.472656 19.125 21.28125 19.125 21.050781 C 19.125 20.816406 18.933594 20.625 18.703125 20.625 L 14.46875 20.625 C 14.234375 20.625 14.042969 20.816406 14.042969 21.050781 C 14.042969 21.28125 14.234375 21.472656 14.46875 21.472656 "/><g clip-rule="nonzero" clip-path="url(#5a7da3b8e9)"><path style=" stroke:none;fill-rule:nonzero;fill:#ffffff;fill-opacity:1;" d="M 19.367188 23.550781 C 16.734375 23.550781 14.589844 21.40625 14.589844 18.769531 C 14.589844 16.136719 16.734375 13.992188 19.367188 13.992188 C 22.003906 13.992188 24.144531 16.136719 24.144531 18.769531 C 24.144531 21.40625 22.003906 23.550781 19.367188 23.550781 Z M 19.367188 14.777344 C 19.105469 14.777344 18.847656 14.804688 18.589844 14.855469 C 18.332031 14.90625 18.082031 14.984375 17.839844 15.082031 C 17.597656 15.183594 17.367188 15.304688 17.148438 15.453125 C 16.933594 15.597656 16.730469 15.761719 16.542969 15.949219 C 16.359375 16.132812 16.195312 16.335938 16.046875 16.554688 C 15.902344 16.769531 15.78125 17 15.679688 17.242188 C 15.578125 17.484375 15.503906 17.734375 15.453125 17.992188 C 15.402344 18.25 15.375 18.507812 15.375 18.769531 C 15.375 19.035156 15.402344 19.292969 15.453125 19.550781 C 15.503906 19.808594 15.578125 20.058594 15.679688 20.300781 C 15.78125 20.542969 15.902344 20.769531 16.046875 20.988281 C 16.195312 21.207031 16.359375 21.410156 16.542969 21.59375 C 16.730469 21.78125 16.933594 21.945312 17.148438 22.089844 C 17.367188 22.234375 17.597656 22.359375 17.839844 22.460938 C 18.082031 22.558594 18.332031 22.636719 18.589844 22.6875 C 18.847656 22.738281 19.105469 22.761719 19.367188 22.761719 C 19.628906 22.761719 19.890625 22.738281 20.144531 22.6875 C 20.402344 22.636719 20.652344 22.558594 20.894531 22.460938 C 21.136719 22.359375 21.367188 22.234375 21.585938 22.089844 C 21.804688 21.945312 22.003906 21.78125 22.191406 21.59375 C 22.375 21.410156 22.542969 21.207031 22.6875 20.988281 C 22.832031 20.769531 22.957031 20.542969 23.054688 20.300781 C 23.15625 20.058594 23.230469 19.808594 23.28125 19.550781 C 23.335938 19.292969 23.359375 19.035156 23.359375 18.769531 C 23.359375 18.507812 23.332031 18.25 23.28125 17.992188 C 23.230469 17.734375 23.15625 17.488281 23.054688 17.246094 C 22.953125 17.003906 22.832031 16.773438 22.683594 16.554688 C 22.539062 16.335938 22.375 16.136719 22.1875 15.949219 C 22.003906 15.765625 21.800781 15.597656 21.585938 15.453125 C 21.367188 15.308594 21.136719 15.183594 20.894531 15.085938 C 20.652344 14.984375 20.402344 14.910156 20.144531 14.855469 C 19.890625 14.804688 19.628906 14.78125 19.367188 14.78125 Z M 19.367188 14.777344 "/></g><path style=" stroke:none;fill-rule:nonzero;fill:#ffffff;fill-opacity:1;" d="M 22.816406 24.066406 C 22.621094 24.066406 22.488281 23.976562 22.410156 23.792969 C 22.335938 23.613281 22.367188 23.453125 22.503906 23.316406 L 23.722656 22.089844 C 23.804688 21.996094 23.910156 21.945312 24.039062 21.941406 C 24.164062 21.9375 24.273438 21.976562 24.363281 22.066406 C 24.453125 22.15625 24.496094 22.265625 24.492188 22.390625 C 24.488281 22.515625 24.441406 22.621094 24.347656 22.707031 L 23.128906 23.933594 C 23.042969 24.019531 22.941406 24.066406 22.816406 24.066406 Z M 22.816406 24.066406 "/><g clip-rule="nonzero" clip-path="url(#5b7194751c)"><path style=" stroke:none;fill-rule:nonzero;fill:#ffffff;fill-opacity:1;" d="M 28.097656 28.191406 C 27.886719 28.191406 27.707031 28.117188 27.558594 27.964844 L 24.320312 24.648438 C 24.175781 24.5 24.101562 24.320312 24.105469 24.113281 C 24.109375 23.90625 24.183594 23.726562 24.332031 23.582031 C 24.480469 23.4375 24.660156 23.367188 24.867188 23.367188 C 25.078125 23.371094 25.253906 23.445312 25.398438 23.59375 L 28.636719 26.910156 C 28.871094 27.148438 28.921875 27.421875 28.792969 27.730469 C 28.664062 28.039062 28.433594 28.191406 28.097656 28.191406 Z M 28.097656 28.191406 "/></g><path style=" stroke:none;fill-rule:nonzero;fill:#ffffff;fill-opacity:1;" d="M 19.359375 22.136719 C 18.746094 22.136719 17.929688 21.960938 17.058594 21.289062 C 16.296875 20.703125 15.941406 19.796875 16.039062 18.675781 C 16.085938 18.15625 16.210938 17.65625 16.410156 17.175781 C 16.476562 17.03125 16.578125 16.992188 16.722656 17.058594 C 16.863281 17.121094 16.90625 17.226562 16.839844 17.367188 C 16.664062 17.804688 16.550781 18.257812 16.507812 18.726562 C 16.429688 19.691406 16.710938 20.425781 17.347656 20.914062 C 18.917969 22.125 20.261719 21.5 20.277344 21.492188 C 20.335938 21.464844 20.394531 21.460938 20.457031 21.480469 C 20.519531 21.5 20.566406 21.542969 20.59375 21.601562 C 20.625 21.660156 20.628906 21.722656 20.605469 21.785156 C 20.582031 21.847656 20.539062 21.890625 20.480469 21.917969 C 20.445312 21.9375 20.015625 22.136719 19.359375 22.136719 Z M 19.359375 22.136719 "/></g></svg>